<svg width="800" height="600" xmlns="http://www.w3.org/2000/svg">

 <g>
  <title>Layer 1</title>
  <rect stroke="#000" id="svg_1" height="227" width="489.99997" y="277" x="155.00001" fill="#fff"/>
  <line stroke="#000" id="svg_2" y2="34.99999" x2="402.99998" y1="276.33333" x1="155" fill="none"/>
  <line transform="rotate(90 522.833 156)" stroke="#000" id="svg_4" y2="35.1666" x2="643.16671" y1="276.83325" x1="402.50008" fill="none"/>
  <ellipse ry="43.00001" rx="68.00001" id="svg_5" cy="174.00004" cx="399.99999" stroke="#000" fill="none"/>
  <ellipse ry="48.00001" rx="102.50002" id="svg_6" cy="383.00007" cx="278.5001" stroke="#000" fill="none"/>
  <line id="svg_7" y2="217.32316" x2="402.31758" y1="131.32484" x1="400.65095" stroke="#000" fill="none"/>
  <line id="svg_8" y2="173.65735" x2="401.3176" y1="173.65735" x1="467.98296" stroke="#000" fill="none"/>
  <line id="svg_9" y2="430.98563" x2="276.98671" y1="335.32084" x1="277.32004" stroke="#000" fill="none"/>
  <line y="137.00088" x="437.50173" height="213.00044" width="303.50063" id="svg_10" y2="381.98659" x2="380.65134" y1="383.3199" x1="175.98869" stroke="#000" fill="none"/>
  <rect stroke="#000" id="svg_11" height="132.99655" width="114.33156" y="370.99096" x="530.31886" fill="#fff"/>
  <path d="m644.98376,450.32258c0,0 -0.15295,0.23114 -0.33337,0.66666c-0.25513,0.61591 -0.56415,1.39532 -0.99994,1.99997c-0.27563,0.38245 -0.09766,0.76428 -0.33337,1c-0.23572,0.23569 -0.39099,0.61755 -0.66663,0.99997c-0.43579,0.60464 -0.66669,1.99997 -0.66669,2.33331c0,0.66666 0,1.66663 0,1.99997c0,0.66666 0,0.99997 0,1.66663c0,0.33334 0,0.66666 0,1c0,0.33331 0,0.99997 0,1.33331c0,0.33331 0,1.33331 0,1.99997c0,0.66666 0,1.99997 0,2.66663c0,0.33331 -0.12756,0.69202 0,0.99997c0.18042,0.43555 0.09766,0.76428 0.33337,1c0.23572,0.23569 0.20575,0.35867 0.33331,0.66666c0.18036,0.43549 0.33331,0.66666 0.33331,0.99997c0,0.33334 -0.23572,0.76428 0,1c0.23572,0.23569 0.76428,-0.23569 1,0c0.23572,0.23569 0.33331,0.33331 0.33331,0.66666l0,0.33331" id="svg_12" stroke="#000" fill="none"/>
 </g>
</svg>