<svg width="10" height="10" viewBox="0 0 10 10" fill="none" xmlns="http://www.w3.org/2000/svg">
<path d="M4.96524 0.84593C4.93445 0.886482 4.63711 1.48259 4.5172 1.74374C3.88931 3.11276 3.76778 3.36986 3.71755 3.42744C3.68433 3.46637 3.65679 3.47853 3.54255 3.50773C3.37241 3.55072 3.28572 3.56694 2.25436 3.75104C1.04232 3.96677 0.749843 4.02436 0.719866 4.05437C0.696371 4.0787 0.708524 4.09654 0.813038 4.19386C1.06501 4.42663 1.17114 4.51665 1.96269 5.15818C2.60112 5.67561 2.75181 5.80132 2.86686 5.91649C2.98352 6.03166 2.98595 6.03896 2.97461 6.16629C2.96084 6.32038 2.9179 6.54747 2.74047 7.41284C2.64325 7.8881 2.55088 8.34228 2.53468 8.42257C2.48526 8.6748 2.43179 9.01706 2.43422 9.06166C2.43827 9.13141 2.44961 9.12898 2.71778 8.99192C2.97137 8.86215 3.04996 8.81917 3.89903 8.3439C4.62658 7.93677 4.74649 7.87107 4.89961 7.79727C5.04058 7.72914 5.0973 7.71049 5.13862 7.71779C5.21964 7.7332 5.46431 7.85404 6.27531 8.27821C6.57913 8.43717 6.9267 8.61641 7.0466 8.67724C7.29776 8.80376 7.6745 8.97732 7.71257 8.98381C7.73283 8.98705 7.73931 8.98462 7.74741 8.97002C7.75957 8.9465 7.75632 8.91 7.71095 8.64155C7.67126 8.40554 7.6591 8.34147 7.45575 7.27497C7.24996 6.19873 7.21269 5.98543 7.21269 5.87837C7.21269 5.78591 7.2216 5.7778 8.17681 4.97975C8.47739 4.72833 8.76014 4.49151 8.8047 4.45339C9.04209 4.25063 9.38885 3.93839 9.39533 3.92055C9.40343 3.89865 9.401 3.88567 9.3848 3.87756C9.34429 3.85566 8.83144 3.79159 7.97832 3.70238C6.77033 3.57586 6.53781 3.54909 6.45355 3.52395C6.43005 3.51665 6.40089 3.50043 6.38711 3.48664C6.33688 3.43636 6.2348 3.23928 5.78352 2.31795C5.31524 1.36175 5.06894 0.874316 5.03248 0.82971C5.01628 0.810246 4.9863 0.817545 4.96524 0.84593Z" fill="#E6AE3F"/>
</svg>
